<svg width="39" height="43" viewBox="0 0 39 43" fill="none" xmlns="http://www.w3.org/2000/svg">
<path fill-rule="evenodd" clip-rule="evenodd" d="M21.0002 6.85L30.8702 12.21L21.7502 0C21.0263 0.971454 20.5751 2.11866 20.4432 3.32296C20.3114 4.52726 20.5037 5.74492 21.0002 6.85Z" fill="url(#paint0_linear_1737_78)"/>
<path fill-rule="evenodd" clip-rule="evenodd" d="M16.5401 26.73C16.9843 26.73 17.4185 26.8615 17.7881 27.1078C18.1576 27.3542 18.446 27.7044 18.6169 28.1144C18.7877 28.5244 18.8335 28.9757 18.7482 29.4116C18.663 29.8475 18.4507 30.2485 18.1381 30.5639C17.8254 30.8794 17.4263 31.0952 16.9912 31.1843C16.5561 31.2733 16.1043 31.2316 15.6929 31.0644C15.2814 30.8972 14.9286 30.6119 14.679 30.2445C14.4294 29.8771 14.2941 29.4441 14.2901 29C14.2875 28.7028 14.3437 28.4081 14.4556 28.1328C14.5675 27.8575 14.7328 27.6071 14.942 27.396C15.1512 27.185 15.4002 27.0175 15.6744 26.9031C15.9487 26.7888 16.243 26.73 16.5401 26.73Z" fill="url(#paint1_linear_1737_78)"/>
<path fill-rule="evenodd" clip-rule="evenodd" d="M9.6702 1.79004L37.3102 16.79C37.5362 16.9 37.7268 17.0713 37.8601 17.2844C37.9934 17.4974 38.064 17.7437 38.064 17.995C38.064 18.2464 37.9934 18.4926 37.8601 18.7057C37.7268 18.9188 37.5362 19.0901 37.3102 19.2C35.2197 20.458 32.9304 21.3507 30.5402 21.84L24.7902 33.64C24.7902 33.64 22.9702 37.78 17.9602 36.19C20.0602 34.09 22.6002 32.19 22.6002 28.96C22.6002 27.3502 21.9607 25.8062 20.8223 24.6679C19.684 23.5296 18.1401 22.89 16.5302 22.89C14.9203 22.89 13.3764 23.5296 12.2381 24.6679C11.0997 25.8062 10.4602 27.3502 10.4602 28.96C10.4602 33.18 14.6202 34.96 16.9302 37.89C17.4349 38.6045 17.6777 39.4711 17.6175 40.3438C17.5574 41.2164 17.1981 42.0416 16.6002 42.68C13.7302 39.84 8.1802 35.05 5.9002 31.91C4.65367 30.3269 3.96782 28.3749 3.9502 26.36C4.0597 24.2161 4.82682 22.1579 6.14725 20.4654C7.46768 18.7728 9.27735 17.5279 11.3302 16.9C12.5893 16.5333 13.8999 16.3745 15.2102 16.43C17.0372 16.5685 18.8119 17.1043 20.4102 18C22.8602 19.44 24.0502 19.06 25.7402 17.64C26.7402 16.82 27.8302 14.15 26.1402 13.53C25.5876 13.3498 25.0229 13.2094 24.4502 13.11C21.3102 12.5 15.8202 11.92 13.8002 10.77C10.5902 9.00004 8.4302 5.35004 9.6702 1.79004Z" fill="url(#paint2_linear_1737_78)"/>
<path fill-rule="evenodd" clip-rule="evenodd" d="M22.5499 28.99C23.8299 22.26 16.9999 15.84 11.7599 16.8L12.1099 16.72C11.8299 16.78 11.5599 16.85 11.2999 16.93C9.24708 17.5579 7.43741 18.8028 6.11698 20.4954C4.79654 22.1879 4.02942 24.2461 3.91992 26.39C3.95179 28.4108 4.65545 30.3635 5.91992 31.94C8.19992 35.08 13.7499 39.87 16.6199 42.71C17.2178 42.0716 17.5772 41.2464 17.6373 40.3738C17.6974 39.5011 17.4546 38.6345 16.9499 37.92C14.5899 35 10.4299 33.21 10.4299 29C10.4299 27.3902 11.0694 25.8463 12.2078 24.7079C13.3461 23.5696 14.8901 22.93 16.4999 22.93C18.1098 22.93 19.6537 23.5696 20.7921 24.7079C21.9304 25.8463 22.5699 27.3902 22.5699 29L22.5499 28.99Z" fill="url(#paint3_linear_1737_78)"/>
<path fill-rule="evenodd" clip-rule="evenodd" d="M9.6698 1.79004L30.6698 13.23L31.2698 13.56C31.7698 13.95 32.2698 14.73 31.6198 16.17C30.6198 18.32 26.6198 20.4 22.0098 18.77C23.4498 19.19 24.4298 18.71 25.6898 17.65C26.6898 16.83 27.7798 14.16 26.0898 13.54C25.5372 13.3598 24.9725 13.2194 24.3998 13.12C21.2598 12.51 15.7698 11.93 13.7498 10.78C10.5898 9.00004 8.4298 5.35004 9.6698 1.79004Z" fill="url(#paint4_linear_1737_78)"/>
<path fill-rule="evenodd" clip-rule="evenodd" d="M9.66992 1.79004C11.8399 9.79004 25.0499 10.45 31.6699 13.79L9.66992 1.79004Z" fill="url(#paint5_linear_1737_78)"/>
<path fill-rule="evenodd" clip-rule="evenodd" d="M16.9 37.92C14.59 35 10.43 33.21 10.43 29C10.4357 27.5241 10.979 26.1008 11.9582 24.9964C12.9374 23.8921 14.2854 23.1824 15.75 23C13.4318 23.0079 11.2108 23.9323 9.57157 25.5716C7.93233 27.2108 7.00792 29.4318 7.00001 31.75C6.99892 32.3413 7.05924 32.9311 7.18001 33.51C9.09001 35.67 11.85 38.22 14.18 40.38C15.09 41.23 15.93 42.03 16.62 42.71C17.1942 42.0448 17.5441 41.2155 17.62 40.34C17.6747 39.4735 17.4195 38.6157 16.9 37.92Z" fill="url(#paint6_linear_1737_78)"/>
<path fill-rule="evenodd" clip-rule="evenodd" d="M22.5198 29.7099C22.5513 29.4712 22.568 29.2307 22.5698 28.9899C23.8298 22.2599 16.9998 15.8399 11.7598 16.7999C12.8787 16.5295 14.0295 16.4151 15.1798 16.4599C22.0498 16.7399 23.9698 24.0799 22.5198 29.7099Z" fill="url(#paint7_linear_1737_78)"/>
<path fill-rule="evenodd" clip-rule="evenodd" d="M2.26 14.8401C2.86031 14.8427 3.43512 15.0831 3.85867 15.5085C4.28222 15.9339 4.52001 16.5098 4.52 17.1101V19.3701H2.26C1.66061 19.3701 1.08577 19.132 0.661939 18.7081C0.238106 18.2843 1.07019e-10 17.7095 1.07019e-10 17.1101C-5.82492e-06 16.5098 0.237781 15.9339 0.661328 15.5085C1.08488 15.0831 1.65969 14.8427 2.26 14.8401Z" fill="url(#paint8_linear_1737_78)"/>
<defs>
<linearGradient id="paint0_linear_1737_78" x1="16.8502" y1="6.11" x2="36.4902" y2="6.11" gradientUnits="userSpaceOnUse">
<stop stop-color="#FBAA19"/>
<stop offset="1" stop-color="#EF3E23"/>
</linearGradient>
<linearGradient id="paint1_linear_1737_78" x1="15.7701" y1="31.08" x2="17.3101" y2="26.87" gradientUnits="userSpaceOnUse">
<stop stop-color="#F78D1E"/>
<stop offset="1" stop-color="#F37121"/>
</linearGradient>
<linearGradient id="paint2_linear_1737_78" x1="3.5602" y1="32.53" x2="27.4902" y2="6.88004" gradientUnits="userSpaceOnUse">
<stop stop-color="#FEBE2D"/>
<stop offset="1" stop-color="#F04E23"/>
</linearGradient>
<linearGradient id="paint3_linear_1737_78" x1="20.4699" y1="17.54" x2="7.22992" y2="37.92" gradientUnits="userSpaceOnUse">
<stop stop-color="#EA4425"/>
<stop offset="1" stop-color="#FDBB27"/>
</linearGradient>
<linearGradient id="paint4_linear_1737_78" x1="0.2398" y1="10.57" x2="42.0398" y2="10.57" gradientUnits="userSpaceOnUse">
<stop stop-color="#F47920"/>
<stop offset="1" stop-color="#E93825"/>
</linearGradient>
<linearGradient id="paint5_linear_1737_78" x1="-21.8401" y1="7.78004" x2="63.2099" y2="7.78004" gradientUnits="userSpaceOnUse">
<stop stop-color="#FDCA0B"/>
<stop offset="1" stop-color="#F5841F"/>
</linearGradient>
<linearGradient id="paint6_linear_1737_78" x1="8.54002" y1="18.07" x2="17.39" y2="48.94" gradientUnits="userSpaceOnUse">
<stop stop-color="#E73C25"/>
<stop offset="1" stop-color="#FAA21B"/>
</linearGradient>
<linearGradient id="paint7_linear_1737_78" x1="-51.3702" y1="23.0799" x2="74.8798" y2="23.0799" gradientUnits="userSpaceOnUse">
<stop stop-color="#FDBA12"/>
<stop offset="1" stop-color="#F7921E"/>
</linearGradient>
<linearGradient id="paint8_linear_1737_78" x1="0.08" y1="16.7201" x2="4.81" y2="17.5601" gradientUnits="userSpaceOnUse">
<stop stop-color="#FEBE2D"/>
<stop offset="1" stop-color="#F04E23"/>
</linearGradient>
</defs>
</svg>
