<svg width="66" height="77" viewBox="0 0 66 77" fill="none" xmlns="http://www.w3.org/2000/svg">
<path d="M25.6899 54.83C25.6899 57.37 27.7799 59.43 30.3499 59.43L30.3699 59.42H42.9499C45.8099 59.1 48.0599 56.68 48.1899 53.78V35.65C48.1899 33.11 46.1299 31.05 43.5899 31.05C41.0499 31.05 38.9899 33.11 38.9899 35.65V47.17C38.9899 48.83 37.6399 50.17 35.9899 50.17H30.2899C27.7499 50.17 25.6899 52.29 25.6899 54.83Z" fill="#4F0599"/>
<path d="M18.21 41.2999C18.21 43.8399 20.27 45.8999 22.81 45.8999L22.8 45.9099C25.34 45.9099 27.4 43.8499 27.4 41.3099V29.7899C27.4 28.1099 28.72 26.7899 30.4 26.7899H36.1C38.64 26.7899 40.7 24.7199 40.7 22.12C40.64 19.55 38.59 17.53 36.04 17.53H23.46C20.59 17.85 18.34 20.27 18.21 23.17V41.2999Z" fill="#4F0599"/>
<path fill-rule="evenodd" clip-rule="evenodd" d="M15.2798 0.310059H38.1298L38.1198 0.320061C53.1898 0.320061 65.3798 12.5101 65.3798 27.52V63.78C64.6398 70.64 59.1298 76.03 52.2098 76.58H28.0798C13.0098 76.58 0.819824 64.39 0.819824 49.32V14.7701C0.819824 6.80007 7.31982 0.310059 15.2798 0.310059ZM56.1598 27.73C56.1598 17.7001 48.0598 9.60006 38.0298 9.60006L15.6298 9.56006C12.5698 9.56006 10.0598 12.1201 10.0598 15.2401V49.1C10.0598 59.13 18.1598 67.23 28.1898 67.23H51.3598C53.8198 66.87 55.7398 65.01 56.1598 62.61V27.73Z" fill="#4F0599"/>
</svg>
